<?xml version="1.0" standalone="no"?>
<!DOCTYPE svg PUBLIC "-//W3C//DTD SVG 20010904//EN"
 "http://www.w3.org/TR/2001/REC-SVG-20010904/DTD/svg10.dtd">
<svg version="1.0" xmlns="http://www.w3.org/2000/svg"
 width="2000.000000pt" height="2000.000000pt" viewBox="0 0 2000.000000 2000.000000"
 preserveAspectRatio="xMidYMid meet">
<metadata>
Created by potrace 1.11, written by Peter Selinger 2001-2013
</metadata>
<g transform="translate(0.000000,2000.000000) scale(0.100000,-0.100000)"
fill="#000000" stroke="none">
<path d="M1752 10000 l0 -8380 8381 2 8382 3 0 8375 0 8375 -8382 3 -8381 2 0
-8380z m16463 0 l0 -8075 -8081 -3 -8081 -2 0 8080 -1 8080 8082 -2 8081 -3 0
-8075z"/>
<path d="M14567 16644 c-1 -1 -48 -4 -105 -8 -155 -10 -374 -53 -527 -103
-442 -145 -828 -329 -1305 -621 -796 -487 -1327 -981 -1703 -1582 -25 -41 -50
-80 -54 -86 -11 -14 -24 -37 -116 -199 -99 -176 -201 -380 -302 -603 -151
-334 -276 -513 -448 -641 -125 -92 -228 -125 -422 -136 -49 -3 -121 -8 -160
-10 -38 -2 -77 -4 -86 -5 -10 0 -28 -31 -52 -93 -20 -51 -37 -95 -37 -99 0 -4
174 -6 387 -6 242 0 388 -3 390 -9 2 -5 -173 -540 -389 -1189 -215 -648 -393
-1183 -394 -1189 -3 -13 -329 -972 -384 -1130 -132 -378 -190 -543 -281 -797
-102 -287 -183 -507 -198 -543 -5 -11 -24 -60 -41 -110 -167 -463 -657 -1683
-699 -1740 -5 -5 -15 -28 -23 -50 -39 -98 -252 -537 -321 -660 -24 -44 -57
-102 -72 -130 -169 -301 -419 -615 -634 -792 -18 -15 -45 -38 -60 -51 -55 -48
-232 -163 -332 -216 -242 -127 -505 -206 -786 -233 -167 -16 -475 -8 -638 17
-33 5 -76 11 -95 14 -19 3 -80 14 -135 25 -55 12 -103 21 -107 21 -14 0 -40
-132 -41 -210 -1 -57 17 -129 49 -196 43 -91 139 -183 245 -236 93 -46 114
-53 224 -77 41 -8 347 -8 418 1 185 24 434 115 746 275 113 58 211 108 216
113 6 4 46 27 90 50 76 41 293 198 400 290 28 23 72 61 99 83 337 287 729 733
991 1127 17 25 33 47 38 48 4 2 7 8 7 13 0 5 15 31 33 57 42 60 117 182 117
189 0 2 9 17 19 32 11 15 59 99 108 186 199 358 393 787 556 1230 14 39 40
108 57 153 17 46 112 312 211 590 99 279 188 530 199 557 10 28 111 313 225
635 113 322 213 603 222 625 8 22 21 58 28 80 7 22 37 110 68 195 30 85 87
247 127 360 40 113 106 300 147 415 42 116 89 248 105 295 16 47 42 121 58
165 54 149 213 600 228 645 8 25 25 74 39 109 14 35 26 71 28 80 2 9 54 156
114 326 61 171 130 365 153 433 l42 122 61 0 c33 1 293 1 577 2 l518 0 10 42
c6 22 19 66 28 96 10 30 18 62 17 70 0 13 -69 15 -563 15 l-563 0 7 30 c4 16
12 43 20 60 7 16 36 95 65 175 279 778 624 1499 938 1960 264 387 489 607 846
827 37 23 199 101 255 123 126 50 294 96 420 116 19 3 64 10 100 16 106 17
421 18 535 2 235 -33 372 -118 412 -253 21 -73 14 -204 -18 -356 -6 -27 -13
-61 -15 -75 -3 -14 -21 -83 -41 -155 -19 -71 -37 -139 -40 -150 -4 -20 0 -21
110 -20 l114 0 212 632 c197 584 259 785 255 823 0 8 -2 27 -2 42 -2 26 -65
109 -80 106 -4 -1 -23 6 -44 15 -48 22 -109 35 -194 42 -76 7 -174 12 -177 9z"/>
</g>
</svg>
